<?xml version="1.0" encoding="UTF-8" standalone="no"?>
<!-- Generator: Adobe Illustrator 19.0.0, SVG Export Plug-In . SVG Version: 6.00 Build 0)  -->

<svg
   xmlns:dc="http://purl.org/dc/elements/1.1/"
   xmlns:cc="http://creativecommons.org/ns#"
   xmlns:rdf="http://www.w3.org/1999/02/22-rdf-syntax-ns#"
   xmlns:svg="http://www.w3.org/2000/svg"
   xmlns="http://www.w3.org/2000/svg"
   xmlns:sodipodi="http://sodipodi.sourceforge.net/DTD/sodipodi-0.dtd"
   xmlns:inkscape="http://www.inkscape.org/namespaces/inkscape"
   version="1.1"
   id="Capa_1"
   x="0px"
   y="0px"
   viewBox="0 0 294.843 294.843"
   style="enable-background:new 0 0 294.843 294.843;"
   xml:space="preserve"
   inkscape:version="0.91 r"
   sodipodi:docname="commerce_0.svg"><metadata
     id="metadata43"><rdf:RDF><cc:Work
         rdf:about=""><dc:format>image/svg+xml</dc:format><dc:type
           rdf:resource="http://purl.org/dc/dcmitype/StillImage" /><dc:title /></cc:Work></rdf:RDF></metadata><defs
     id="defs41" /><sodipodi:namedview
     pagecolor="#ffffff"
     bordercolor="#666666"
     borderopacity="1"
     objecttolerance="10"
     gridtolerance="10"
     guidetolerance="10"
     inkscape:pageopacity="0"
     inkscape:pageshadow="2"
     inkscape:window-width="1366"
     inkscape:window-height="744"
     id="namedview39"
     showgrid="false"
     inkscape:zoom="0.80042602"
     inkscape:cx="-58.718735"
     inkscape:cy="147.42149"
     inkscape:window-x="0"
     inkscape:window-y="24"
     inkscape:window-maximized="1"
     inkscape:current-layer="Capa_1" /><path
     inkscape:connector-curvature="0"
     id="path7"
     d="m 18.9002,219.63842 c 39.820713,70.86642 129.87179,96.12409 200.73822,56.30338 70.86642,-39.82071 96.12409,-129.87179 56.30338,-200.738216 -1.62295,-2.888255 -5.28174,-3.914481 -8.17,-2.291535 -2.88825,1.622946 -3.91448,5.281743 -2.29153,8.169998 36.5801,65.097273 13.37831,147.818503 -51.72032,184.398223 C 148.66132,302.05999 65.940963,278.85771 29.361733,213.75995 -7.2174975,148.66219 15.984289,65.940963 81.082047,29.361733 121.60305,6.5924833 170.30322,6.0913947 211.35586,28.022555 c 2.92262,1.56148 6.55818,0.458054 8.11966,-2.464567 1.56148,-2.922622 0.45854,-6.557313 -2.46457,-8.119664 C 172.32656,-6.4324069 119.31464,-5.8863421 75.204455,18.89971 4.3366718,58.720041 -20.921003,148.77112 18.9002,219.63842 Z" /><g
     id="g9" /><g
     id="g11" /><g
     id="g13" /><g
     id="g15" /><g
     id="g17" /><g
     id="g19" /><g
     id="g21" /><g
     id="g23" /><g
     id="g25" /><g
     id="g27" /><g
     id="g29" /><g
     id="g31" /><g
     id="g33" /><g
     id="g35" /><g
     id="g37" /><path
     inkscape:connector-curvature="0"
     d="m 245.77372,100.58135 -51.90749,0 -85.04826,0 0,-2.561589 c 0,-20.788281 17.95833,-37.701085 40.0317,-37.701085 l 0.89163,0 c 14.16118,0 27.40889,7.159223 34.5734,18.682211 1.14201,1.83751 3.64842,2.454297 5.6002,1.378775 1.95043,-1.075522 2.60602,-3.4373 1.46401,-5.274168 C 182.75177,61.228436 166.79707,52.6082 149.7413,52.6082 l -0.89163,0 c -26.58751,0 -48.21814,20.371307 -48.21814,45.410918 l 0,2.561592 -47.814263,0 c -2.26014,0 -4.09322,1.72636 -4.09322,3.85492 l 0,112.70555 c 0,2.12856 1.83308,3.85491 4.09322,3.85491 l 192.956453,0 c 2.26014,0 4.09322,-1.72635 4.09322,-3.85491 l 0,-112.70491 c 0,-2.12856 -1.83308,-3.85492 -4.09322,-3.85492 z m -4.09322,112.70555 -184.770012,0 0,-104.99571 47.814262,0 89.14148,0 47.81427,0 0,104.99571 z"
     id="path4326" /></svg>