<?xml version="1.0" encoding="UTF-8" standalone="no"?>
<!-- Generator: Adobe Illustrator 19.2.1, SVG Export Plug-In . SVG Version: 6.00 Build 0)  -->

<svg
   xmlns:dc="http://purl.org/dc/elements/1.1/"
   xmlns:cc="http://creativecommons.org/ns#"
   xmlns:rdf="http://www.w3.org/1999/02/22-rdf-syntax-ns#"
   xmlns:svg="http://www.w3.org/2000/svg"
   xmlns="http://www.w3.org/2000/svg"
   xmlns:sodipodi="http://sodipodi.sourceforge.net/DTD/sodipodi-0.dtd"
   xmlns:inkscape="http://www.inkscape.org/namespaces/inkscape"
   version="1.1"
   id="Слой_2"
   x="0px"
   y="0px"
   viewBox="0 0 295 295"
   xml:space="preserve"
   inkscape:version="0.91 r"
   sodipodi:docname="1v1-me-uh-club-penguin_o_4536543.svg"
   width="295"
   height="295"><metadata
     id="metadata61"><rdf:RDF><cc:Work
         rdf:about=""><dc:format>image/svg+xml</dc:format><dc:type
           rdf:resource="http://purl.org/dc/dcmitype/StillImage" /><dc:title></dc:title></cc:Work></rdf:RDF></metadata><defs
     id="defs59" /><sodipodi:namedview
     pagecolor="#ffffff"
     bordercolor="#666666"
     borderopacity="1"
     objecttolerance="10"
     gridtolerance="10"
     guidetolerance="10"
     inkscape:pageopacity="0"
     inkscape:pageshadow="2"
     inkscape:window-width="1366"
     inkscape:window-height="744"
     id="namedview57"
     showgrid="false"
     inkscape:zoom="1.6613757"
     inkscape:cx="103.02989"
     inkscape:cy="156.99369"
     inkscape:window-x="0"
     inkscape:window-y="24"
     inkscape:window-maximized="1"
     inkscape:current-layer="Слой_2" /><style
     type="text/css"
     id="style3">
	.st0{fill:none;stroke:#010204;stroke-width:3;stroke-miterlimit:10;}
</style><path
     class="st0"
     d="m 110.47869,89.11335 c 11.54602,-9.566702 26.39091,-11.875906 26.39091,-11.875906 25.07137,-5.11324 47.50364,12.040848 47.50364,12.040848 l 2.6391,-0.824711 c 0,0 -3.79369,-16.98915 -9.56671,-22.102389 -5.77301,-5.11324 -26.06103,-18.638584 -45.68927,-15.339719 -19.62824,3.298864 -22.26733,5.608069 -36.782335,19.463299 -14.515004,13.855229 -21.937446,38.761648 -21.937446,38.761648 -14.020173,0.16494 -21.772507,18.80354 -21.772507,18.80354 -12.535686,23.91676 -12.337755,28.23827 -12.337755,28.23827 0,0 -18.143754,39.05855 -1.022644,74.68629 l 5.773007,7.5214 c 0,0 14.515004,8.84097 29.194949,12.96454 14.679944,4.12358 45.194451,8.57704 61.688771,9.73165 16.49431,1.1546 59.37955,1.31955 68.12154,-1.48448 l 4.78336,0.32987 c 0,0 1.64943,-3.95862 9.89659,-4.6184 8.24715,-0.65977 31.57013,-16.39536 31.3392,-18.80352 0,0 0.82472,-1.31955 11.21614,-1.64944 0,0 10.72132,-2.87001 10.72132,-9.56671 0,-0.65976 0.98965,-3.4638 -1.81437,-7.09255 0,0 -0.23093,-1.55047 3.23289,-3.03496 0,0 5.1792,-2.24322 8.31313,-7.68636 3.13392,-5.44312 -1.41852,-9.17084 -3.39784,-9.73164 l -1.08862,0.42885 c 0,0 0.23092,-15.70259 -9.8966,-25.17033 0,0 -8.34611,-8.61003 -10.06153,-10.09453"
     id="path5"
     inkscape:connector-curvature="0"
     style="fill:none;stroke:#010204;stroke-width:0.98965925;stroke-miterlimit:10" /><path
     class="st0"
     d="m 177.44563,66.351192 c 0,0 17.15409,-11.710968 36.12257,-12.205798 18.96846,-0.49483 25.07137,6.597728 31.3392,14.185116 6.26785,7.587388 7.58739,20.123071 7.58739,20.123071 0,0 -4.61841,1.319548 -8.08221,-1.154605 -3.46381,-2.474143 -6.10291,0 -6.10291,0 0,0 -2.80402,0.164942 -4.6184,-1.979317 -1.81437,-2.144261 -42.88524,0.329884 -49.31803,3.958633 0,0 10.12753,10.160504 11.87591,10.622348 1.7484,0.42885 8.24717,5.60807 8.67602,6.92761 0.42885,1.31955 -0.98966,4.51945 -1.41852,4.71737 -0.42884,0.19794 -16.16443,-8.67601 -35.72669,-6.92761 -19.56227,1.7484 -24.74148,5.93796 -29.26093,9.56671 0,0 -11.87591,7.68635 -24.18068,8.24716 0,0 -2.63909,0.56081 -5.93795,-0.099 -3.29886,-0.65977 -3.19991,3.72773 -1.97932,4.84934 1.22058,1.08862 1.22058,1.08862 1.22058,1.08862 0,0 -0.23092,0.98966 8.01624,1.88036 2.50713,0.2639 4.18956,0.49482 5.31117,0.69275 0.066,0 0.099,0.033 0.16495,0.033 1.22059,0.23093 1.78139,0.39587 2.0453,0.52782 0.23091,0.13195 15.70258,-1.02265 25.50022,-4.42048 9.79762,-3.39783 29.42586,-6.53176 29.42586,-6.53176 l 7.52142,-1.91334 c 0,0 18.07777,-0.65978 21.60756,0.65977 3.52978,1.31955 2.57311,7.02659 2.57311,7.02659 0,0 -0.92368,7.85131 -3.39783,11.21613 -2.47415,3.36485 -28.63415,8.90694 -28.63415,8.90694 0,0 -12.86556,1.08863 -24.74148,0 0,0 -20.45295,-6.59772 -29.35989,-13.9542 l -2.70507,-1.58345"
     id="path7"
     inkscape:connector-curvature="0"
     style="fill:none;stroke:#010204;stroke-width:0.98965925;stroke-miterlimit:10" /><path
     class="st0"
     d="m 114.43732,116.16404 c 0,0 11.54604,-0.98966 23.75183,-10.88625 0,0 14.51501,-8.082221 32.98864,-7.25751 18.47364,0.824722 25.07136,1.88036 25.07136,1.88036"
     id="path9"
     inkscape:connector-curvature="0"
     style="fill:none;stroke:#010204;stroke-width:0.98965925;stroke-miterlimit:10" /><path
     class="st0"
     d="m 204.66126,108.7416 c 0,0 25.07137,-10.556367 43.05018,-8.906945 17.9788,1.649435 25.5662,2.144265 33.48347,6.267845 0,0 5.77301,3.13392 4.12359,8.24716"
     id="path11"
     inkscape:connector-curvature="0"
     style="fill:none;stroke:#010204;stroke-width:0.98965925;stroke-miterlimit:10" /><path
     class="st0"
     d="m 207.13541,113.29402 c 21.11273,-8.47808 41.99455,-7.58738 41.99455,-7.58738 25.73113,1.08862 32.75771,6.6967 38.92659,10.4574 6.16887,3.7607 1.22058,6.26784 1.22058,6.26784 0,0 -11.71097,-7.75233 -34.96796,-5.54209 -23.257,2.21024 -29.19495,4.45347 -29.19495,4.45347 l -15.43869,4.45346"
     id="path13"
     inkscape:connector-curvature="0"
     style="fill:none;stroke:#010204;stroke-width:0.98965925;stroke-miterlimit:10" /><path
     class="st0"
     d="m 252.49479,88.453581 c 0,0 16.49433,3.298865 23.257,12.205799 0,0 1.12161,1.12161 0.2639,3.10093 l -0.033,0.13196"
     id="path15"
     inkscape:connector-curvature="0"
     style="fill:none;stroke:#010204;stroke-width:0.98965925;stroke-miterlimit:10" /><path
     class="st0"
     d="m 206.40966,137.44171 c 1.08862,0.75874 1.97931,3.23289 1.97931,3.23289 24.18069,4.71738 20.22204,3.13393 32.72474,3.89266 12.53569,0.75875 38.53074,-5.27818 42.32443,-6.59773 3.7937,-1.31953 4.71738,-2.80404 7.52142,-5.60806 2.80402,-2.80404 -1.64945,-9.89661 -1.64945,-9.89661"
     id="path17"
     inkscape:connector-curvature="0"
     style="fill:none;stroke:#010204;stroke-width:0.98965925;stroke-miterlimit:10" /><path
     class="st0"
     d="m 232.53666,170.49633 -6.03692,-4.09058 c 0,0 -9.56671,-3.06795 -13.29443,-5.5421"
     id="path19"
     inkscape:connector-curvature="0"
     style="fill:none;stroke:#010204;stroke-width:0.98965925;stroke-miterlimit:10" /><path
     class="st0"
     d="m 226.53273,166.40575 c 0,0 17.64893,0.59378 28.20529,-2.96898 10.55637,-3.56278 20.22204,-11.21614 21.27767,-15.83455 0,0 0.26391,-1.48449 2.80404,-2.3092 2.54012,-0.82471 7.09255,-3.13393 7.42245,-3.89266 0.32988,-0.75874 0.39586,-1.7814 -0.92368,-4.25555"
     id="path21"
     inkscape:connector-curvature="0"
     style="fill:none;stroke:#010204;stroke-width:0.98965925;stroke-miterlimit:10" /><path
     class="st0"
     d="m 155.57417,171.81588 c 0,0 24.41159,-7.68635 34.30818,-14.94385"
     id="path23"
     inkscape:connector-curvature="0"
     style="fill:none;stroke:#010204;stroke-width:0.98965925;stroke-miterlimit:10" /><path
     class="st0"
     d="m 123.90506,142.55496 c 0,0 13.19546,7.91727 25.50022,9.66567 12.30476,1.7484 37.60706,0.8907 37.60706,0.8907 0,0 3.72772,-0.65978 6.59773,-2.21025 2.87001,-1.55046 5.5091,-0.23092 5.5091,-0.23092 0,0 5.27819,-2.40816 8.57704,-7.48842 0,0 1.1876,-1.51747 0.69276,-2.57311"
     id="path25"
     inkscape:connector-curvature="0"
     style="fill:none;stroke:#010204;stroke-width:0.98965925;stroke-miterlimit:10" /><path
     class="st0"
     d="m 41.928288,241.7848 c 0,0 28.205286,18.8695 49.647902,22.82813 0,0 58.52185,9.0059 86.23231,5.37715 0,0 26.62184,-1.41851 24.90642,-10.32545"
     id="path27"
     inkscape:connector-curvature="0"
     style="fill:none;stroke:#010204;stroke-width:0.98965925;stroke-miterlimit:10" /><path
     class="st0"
     d="m 37.903673,294.30271 201.989457,0 c 0,0 -4.9483,-11.44706 -9.13785,-16.16444 -4.18957,-4.71738 -15.83455,-11.11717 -20.354,-13.75625 -4.51944,-2.6391 -2.96898,-4.3875 -2.96898,-4.3875"
     id="path29"
     inkscape:connector-curvature="0"
     style="fill:none;stroke:#010204;stroke-width:0.98965925;stroke-miterlimit:10" /><path
     class="st0"
     d="m 43.67668,238.48592 c -0.824713,0.69277 -1.748392,3.33186 -1.748392,3.33186 -2.309206,-0.16494 -4.024615,0.49483 -4.024615,0.49483"
     id="path31"
     inkscape:connector-curvature="0"
     style="fill:none;stroke:#010204;stroke-width:0.98965925;stroke-miterlimit:10" /><path
     class="st0"
     d="m 93.159649,222.8823 c 0,0 3.463802,13.19546 17.483971,14.02018"
     id="path33"
     inkscape:connector-curvature="0"
     style="fill:none;stroke:#010204;stroke-width:0.98965925;stroke-miterlimit:10" /><path
     class="st0"
     d="m 275.91673,198.23978 c 0,0 -8.84095,4.58542 -19.29836,7.12555 -10.45739,2.54013 -10.45739,2.54013 -10.45739,2.54013 0,0 -15.60363,6.03692 -54.10139,-0.65977 -38.46475,-6.72969 -51.23135,-8.93993 -51.23135,-8.93993 0,0 -19.69422,-2.54012 -23.09206,-0.32989 -3.39783,2.21025 -9.56671,2.6391 -13.42637,12.53568 -3.85968,9.8966 6.03693,13.85524 6.03693,13.85524 l 23.32297,0.099 c 0,0 1.97931,-0.56081 8.01623,0.89069 6.03693,1.41851 10.65533,1.97932 25.8301,5.11323 15.17478,3.13392 43.24812,4.45348 43.24812,4.45348 l 39.91626,0.89069"
     id="path35"
     inkscape:connector-curvature="0"
     style="fill:none;stroke:#010204;stroke-width:0.98965925;stroke-miterlimit:10" /><path
     class="st0"
     d="m 120.83712,210.51155 15.24075,0.099 c 0,0 23.85079,4.88232 27.80942,5.27819 3.95865,0.39586 16.69226,3.43082 25.50023,3.89266 8.80797,0.46183 33.41749,2.07828 42.45638,1.08862 0,0 29.12897,-1.64943 35.06693,-3.39783 l 2.37518,-0.26391"
     id="path37"
     inkscape:connector-curvature="0"
     style="fill:none;stroke:#010204;stroke-width:0.98965925;stroke-miterlimit:10" /><path
     class="st0"
     d="m 154.41956,146.41463 c 0,0 -1.48449,-11.71097 4.18955,-17.08812 5.67405,-5.37715 16.39536,-7.02658 21.11273,-6.03692 4.71738,0.98966 12.93156,0.59379 17.58295,18.20973"
     id="path39"
     inkscape:connector-curvature="0"
     style="fill:none;stroke:#010204;stroke-width:0.98965925;stroke-miterlimit:10" /><path
     class="st0"
     d="m 165.66869,129.82134 c 0,0 -0.79173,1.31955 1.28655,2.77104 2.07829,1.45151 1.97932,1.1876 1.97932,1.1876 0,0 2.83703,-1.1546 2.6061,-3.39784 -0.23091,-2.24322 -3.00196,-3.13391 -3.00196,-3.13391 0,0 -2.6391,-0.56081 -2.87001,2.57311 z"
     id="path41"
     inkscape:connector-curvature="0"
     style="fill:none;stroke:#010204;stroke-width:0.98965925;stroke-miterlimit:10" /><path
     class="st0"
     d="m 169.33042,140.01482 c 0,0 -2.01231,0.6268 -2.50713,1.7484 -0.49483,1.12162 1.35253,2.40818 2.14426,2.6391 0.79173,0.23092 2.77105,-1.02265 2.73805,-2.3092 -0.033,-1.31955 -1.41851,-2.30921 -2.37518,-2.0783 z"
     id="path43"
     inkscape:connector-curvature="0"
     style="fill:none;stroke:#010204;stroke-width:0.98965925;stroke-miterlimit:10" /><path
     class="st0"
     d="m 177.11575,137.77161 c 0,0 1.74838,3.39782 4.0576,3.72771 2.3092,0.32988 5.54209,-2.80403 4.78335,-3.62875 0,0 -0.13196,-4.48646 -4.81634,-4.38749 -4.68438,0.099 -4.02461,4.28853 -4.02461,4.28853 z"
     id="path45"
     inkscape:connector-curvature="0"
     style="fill:none;stroke:#010204;stroke-width:0.98965925;stroke-miterlimit:10" /><path
     class="st0"
     d="m 235.30771,144.20438 c 0,0 -4.51944,-15.0758 8.57705,-21.87147 13.09649,-6.79566 20.0241,-1.64943 26.16,2.54013 0,0 4.38748,4.51945 5.04725,15.17478"
     id="path47"
     inkscape:connector-curvature="0"
     style="fill:none;stroke:#010204;stroke-width:0.98965925;stroke-miterlimit:10" /><path
     class="st0"
     d="m 246.35891,126.52247 c 0,0 2.83702,-2.17724 3.62875,-1.97931 0.79173,0.19792 3.79369,0.46184 2.44115,4.71738 -1.35252,4.25552 -6.10289,-0.62679 -6.10289,-0.62679 0,0 -0.85771,-1.15461 0.0329,-2.11128 z"
     id="path49"
     inkscape:connector-curvature="0"
     style="fill:none;stroke:#010204;stroke-width:0.98965925;stroke-miterlimit:10" /><path
     class="st0"
     d="m 245.96304,137.07884 c 0,0 -2.01231,0.8577 -0.099,3.06794 1.91334,2.21025 3.82668,-0.59379 3.82668,-0.59379 0,0 1.48449,-2.01231 -1.61644,-3.00196 0.033,0 -1.12161,-0.56081 -2.11127,0.52781 z"
     id="path51"
     inkscape:connector-curvature="0"
     style="fill:none;stroke:#010204;stroke-width:0.98965925;stroke-miterlimit:10" /><path
     class="st0"
     d="m 258.69666,131.86664 c 0,0 -3.43082,0.92368 -1.84736,4.15656 1.58344,3.23289 3.43081,2.93599 3.62875,3.00197 0.19793,0.066 4.9153,-1.12161 3.29885,-5.54209 -1.61644,-4.42048 -5.08024,-1.61644 -5.08024,-1.61644 z"
     id="path53"
     inkscape:connector-curvature="0"
     style="fill:none;stroke:#010204;stroke-width:0.98965925;stroke-miterlimit:10" /><path
     class="st0"
     d="m 37.903673,242.27962 c 0,0 -28.2712696,19.36433 -33.5494552,52.02309 l 33.5494552,0"
     id="path55"
     inkscape:connector-curvature="0"
     style="fill:none;stroke:#010204;stroke-width:0.98965925;stroke-miterlimit:10" /><path
     style="fill:#000000;fill-opacity:1;stroke:#000000;stroke-width:1.50477707;stroke-linecap:square;stroke-linejoin:round;stroke-miterlimit:4;stroke-dasharray:none;stroke-dashoffset:0;stroke-opacity:1"
     d="m 157.74073,146.05795 -2.97925,-0.0989 0.18691,-3.82574 c 0.38573,-7.8954 2.23057,-11.6282 7.22685,-14.62262 3.70259,-2.21907 9.6348,-3.79946 14.2618,-3.79946 2.86119,0 7.90036,1.00659 9.92198,1.98195 3.09282,1.49216 6.05758,4.85754 7.90326,8.97122 1.06825,2.38093 2.29053,6.13199 2.06997,6.35255 -0.0907,0.0907 -4.21316,1.18454 -9.16092,2.43067 -8.95053,2.25425 -9.02405,2.26708 -14.56362,2.54059 -5.37195,0.26523 -8.53397,0.28007 -14.86698,0.0698 z m 12.75697,-1.42864 c 1.13155,-0.58514 1.80906,-1.57758 1.80906,-2.64995 0,-1.14827 -1.46659,-2.61887 -2.61021,-2.61736 -1.04798,0.001 -2.60853,0.92098 -3.26618,1.92468 -0.42305,0.64567 -0.43587,0.86722 -0.0916,1.58315 0.42152,0.87655 2.15121,2.2092 2.8674,2.2092 0.23203,0 0.81321,-0.20237 1.29152,-0.44972 z m 13.21061,-3.14402 c 0.6298,-0.32129 1.57674,-1.0758 2.10432,-1.67668 0.83161,-0.94715 0.93328,-1.23979 0.7642,-2.19965 -0.29472,-1.6731 -1.36016,-3.41453 -2.49278,-4.07436 -1.32025,-0.76913 -4.02956,-0.8134 -5.3953,-0.0882 -1.89984,1.00886 -2.7012,3.42503 -1.74199,5.25223 0.4784,0.9113 2.49263,2.90988 3.18484,3.1601 0.95626,0.34567 2.47867,0.1867 3.57671,-0.37348 z m -13.54739,-7.7019 c 1.38871,-0.91901 1.97334,-1.924 1.93366,-3.32399 -0.0819,-2.88981 -3.88765,-4.84582 -5.95663,-3.0615 -0.91073,0.78542 -1.48661,2.85561 -1.08424,3.8976 0.31591,0.81808 1.28259,1.74126 2.73872,2.61545 0.57934,0.34782 1.0901,0.6329 1.13503,0.63351 0.0449,6.4e-4 0.59999,-0.34186 1.23346,-0.76107 z"
     id="path4269"
     inkscape:connector-curvature="0" /><path
     style="fill:#000000;fill-opacity:1;stroke:#000000;stroke-width:1.50477707;stroke-linecap:square;stroke-linejoin:round;stroke-miterlimit:4;stroke-dasharray:none;stroke-dashoffset:0;stroke-opacity:1"
     d="m 236.14152,143.62079 c -0.93017,-0.63396 -1.20591,-6.08023 -0.48232,-9.52663 1.38766,-6.60943 6.23105,-11.15438 14.41375,-13.52564 3.08012,-0.89258 7.13578,-1.03434 9.74211,-0.34053 3.42458,0.91164 9.27081,4.32069 10.59232,6.17658 1.67427,2.35129 3.42009,7.53471 3.80582,11.29961 0.18382,1.79425 0.16167,1.88102 -0.52245,2.04643 -2.47296,0.59793 -12.37268,2.41717 -16.81552,3.09014 -4.28456,0.64899 -6.66981,0.82274 -12.79061,0.93175 -4.49224,0.08 -7.6928,0.0189 -7.9431,-0.15171 z m 13.48763,-3.07924 c 2.38484,-2.38484 -0.0967,-5.39447 -3.81403,-4.62574 -0.73246,0.15147 -0.93397,0.27848 -0.5741,0.36187 0.51892,0.12025 0.51409,0.15678 -0.0752,0.56956 -0.97904,0.68575 -0.85885,2.50565 0.24341,3.68563 1.22719,1.31371 2.91146,1.31717 4.21996,0.009 z m 12.65948,-1.56437 c 2.26669,-1.19865 2.98643,-3.58791 1.84073,-6.1105 -0.67452,-1.48514 -1.93036,-2.53447 -3.03327,-2.53447 -1.20304,0 -4.35041,1.6755 -4.82972,2.5711 -0.62997,1.17712 -0.45049,2.72973 0.47874,4.14127 1.71025,2.59794 3.2622,3.13899 5.54352,1.9326 z m -10.48438,-7.76632 c 0.82436,-0.44119 1.45951,-2.07217 1.45951,-3.74784 0,-1.69493 -0.35514,-2.40494 -1.49875,-2.99632 -1.47617,-0.76336 -2.74285,-0.57302 -4.54419,0.68285 -1.42789,0.99551 -1.64323,1.27977 -1.7261,2.27853 -0.0806,0.97179 0.0589,1.28598 0.94022,2.11718 1.88595,1.77867 3.95738,2.42124 5.36931,1.6656 z"
     id="path4271"
     inkscape:connector-curvature="0" /></svg>